<svg width="262" height="178" viewBox="0 0 262 178" fill="none" xmlns="http://www.w3.org/2000/svg">
<path opacity="0.4" d="M225.499 159.454C228.1 156.855 228.1 152.641 225.499 150.042C222.898 147.443 218.68 147.443 216.078 150.042C213.477 152.641 213.477 156.855 216.078 159.454C218.68 162.053 222.898 162.053 225.499 159.454Z" fill="#FFA400"/>
<path opacity="0.4" d="M67.9756 80.8708C67.9756 67.114 56.8146 55.9679 43.0469 55.9753C29.2791 55.9826 18.1182 67.1406 18.1182 80.8974C18.1182 94.6541 29.2791 105.8 43.0469 105.793C56.8146 105.786 67.9756 94.6275 67.9756 80.8708Z" fill="#FFA400"/>
<path d="M12.565 120.921C13.8533 120.921 14.8976 119.878 14.8976 118.591C14.8976 117.304 13.8533 116.26 12.565 116.26C11.2768 116.26 10.2324 117.304 10.2324 118.591C10.2324 119.878 11.2768 120.921 12.565 120.921Z" fill="black"/>
<path d="M253.339 99.6464C254.849 99.6464 256.074 98.4235 256.074 96.915C256.074 95.4065 254.849 94.1836 253.339 94.1836C251.83 94.1836 250.605 95.4065 250.605 96.915C250.605 98.4235 251.83 99.6464 253.339 99.6464Z" fill="#FFDB99"/>
<path d="M134.378 5.19175C135.804 5.19175 136.961 4.03675 136.961 2.61199C136.961 1.18723 135.804 0.0322266 134.378 0.0322266C132.952 0.0322266 131.796 1.18723 131.796 2.61199C131.796 4.03675 132.952 5.19175 134.378 5.19175Z" fill="black"/>
<path opacity="0.4" d="M75.8134 160.847C79.0445 160.847 81.6639 158.231 81.6639 155.003C81.6639 151.775 79.0445 149.158 75.8134 149.158C72.5822 149.158 69.9629 151.775 69.9629 155.003C69.9629 158.231 72.5822 160.847 75.8134 160.847Z" fill="#FFA400"/>
<path opacity="0.4" d="M224.12 47.1989C236.462 47.1989 246.467 37.2032 246.467 24.8729C246.467 12.5426 236.462 2.54688 224.12 2.54688C211.778 2.54688 201.772 12.5426 201.772 24.8729C201.772 37.2032 211.778 47.1989 224.12 47.1989Z" fill="#FFA400"/>
<path opacity="0.8" d="M47.1792 146.913L27.1084 143.93L34.5466 163.559L47.1792 146.913Z" fill="#FFA400"/>
<path opacity="0.5" d="M222.658 122.361V31.8363C222.658 29.8655 222.27 27.914 221.515 26.0932C220.76 24.2725 219.653 22.6181 218.258 21.2246C216.863 19.8311 215.207 18.7257 213.385 17.9716C211.562 17.2175 209.609 16.8295 207.636 16.8296H52.7404C48.7565 16.8296 44.9358 18.4106 42.1188 21.225C39.3018 24.0393 37.7192 27.8563 37.7192 31.8363V122.36C37.7191 124.331 38.1076 126.283 38.8625 128.104C39.6174 129.925 40.7239 131.579 42.1188 132.973C43.5138 134.366 45.1699 135.472 46.9925 136.226C48.8151 136.98 50.7686 137.368 52.7414 137.368H207.636C209.609 137.368 211.562 136.98 213.384 136.226C215.207 135.472 216.863 134.366 218.258 132.973C219.652 131.579 220.759 129.925 221.514 128.104C222.269 126.284 222.658 124.332 222.658 122.361Z" fill="#FFA400"/>
<path d="M218.104 117.125V37.0796C218.104 28.4297 211.086 21.4175 202.427 21.4175L58.8972 21.4175C50.2389 21.4175 43.22 28.4297 43.22 37.0796V117.125C43.22 125.775 50.2389 132.787 58.8972 132.787H202.427C211.086 132.787 218.104 125.775 218.104 117.125Z" fill="white"/>
<path d="M123.062 35.5034H64.4584C59.6605 35.5034 55.771 39.3891 55.771 44.1824V107.541C55.771 112.335 59.6605 116.22 64.4584 116.22H123.062C127.86 116.22 131.749 112.335 131.749 107.541V44.1824C131.749 39.3891 127.86 35.5034 123.062 35.5034Z" stroke="#D8DCFD" stroke-width="0.96" stroke-miterlimit="10"/>
<path d="M200.774 35.5034H146.861C142.063 35.5034 138.174 39.3891 138.174 44.1824V73.1753C138.174 77.9686 142.063 81.8543 146.861 81.8543H200.774C205.572 81.8543 209.461 77.9686 209.461 73.1753V44.1824C209.461 39.3891 205.572 35.5034 200.774 35.5034Z" stroke="#D8DCFD" stroke-width="0.96" stroke-miterlimit="10"/>
<path d="M200.774 88.3115H146.861C142.063 88.3115 138.174 92.1972 138.174 96.9905V107.461C138.174 112.255 142.063 116.14 146.861 116.14H200.774C205.572 116.14 209.461 112.255 209.461 107.461V96.9905C209.461 92.1972 205.572 88.3115 200.774 88.3115Z" stroke="#D8DCFD" stroke-width="0.96" stroke-miterlimit="10"/>
<path d="M118.384 88.5093H69.0513C67.066 88.5093 65.4565 90.1172 65.4565 92.1006V100.05C65.4565 102.034 67.066 103.642 69.0513 103.642H118.384C120.369 103.642 121.978 102.034 121.978 100.05V92.1006C121.978 90.1172 120.369 88.5093 118.384 88.5093Z" fill="#262729"/>
<path d="M83.5245 95.492C83.5103 95.3487 83.4494 95.2375 83.3417 95.1582C83.2339 95.0788 83.0878 95.0392 82.9031 95.0392C82.7776 95.0392 82.6717 95.057 82.5853 95.0925C82.4989 95.1268 82.4326 95.1747 82.3864 95.2363C82.3414 95.2978 82.3189 95.3677 82.3189 95.4458C82.3166 95.5109 82.3302 95.5677 82.3598 95.6163C82.3906 95.6648 82.4326 95.7068 82.4858 95.7423C82.5391 95.7766 82.6007 95.8068 82.6705 95.8329C82.7403 95.8577 82.8149 95.879 82.8942 95.8968L83.2209 95.9749C83.3795 96.0104 83.5251 96.0578 83.6577 96.117C83.7903 96.1762 83.9051 96.2489 84.0022 96.3354C84.0992 96.4218 84.1744 96.5236 84.2277 96.6408C84.2821 96.7579 84.3099 96.8923 84.3111 97.0438C84.3099 97.2663 84.2531 97.4593 84.1407 97.6226C84.0294 97.7848 83.8684 97.9109 83.6577 98.0008C83.4482 98.0896 83.1955 98.134 82.8995 98.134C82.606 98.134 82.3503 98.089 82.1325 97.9991C81.9159 97.9091 81.7466 97.7759 81.6247 97.5996C81.504 97.422 81.4406 97.2024 81.4347 96.9408H82.1787C82.187 97.0628 82.2219 97.1646 82.2834 97.2462C82.3462 97.3267 82.4296 97.3877 82.5338 97.4291C82.6391 97.4694 82.7581 97.4895 82.8907 97.4895C83.0209 97.4895 83.1339 97.4705 83.2298 97.4327C83.3269 97.3948 83.402 97.3421 83.4553 97.2746C83.5086 97.2072 83.5352 97.1296 83.5352 97.042C83.5352 96.9604 83.5109 96.8917 83.4624 96.8361C83.4151 96.7804 83.3452 96.7331 83.2529 96.694C83.1617 96.655 83.0499 96.6195 82.9173 96.5875L82.5214 96.4881C82.2148 96.4135 81.9727 96.2969 81.7951 96.1383C81.6176 95.9797 81.5294 95.766 81.5306 95.4973C81.5294 95.2771 81.588 95.0848 81.7064 94.9202C81.8259 94.7557 81.9899 94.6273 82.1982 94.5349C82.4065 94.4426 82.6433 94.3964 82.9084 94.3964C83.1783 94.3964 83.4139 94.4426 83.6151 94.5349C83.8175 94.6273 83.9749 94.7557 84.0874 94.9202C84.1999 95.0848 84.2579 95.2753 84.2614 95.492H83.5245ZM85.5704 96.5058V98.0825H84.8141V94.4462H85.5491V95.8364H85.5811C85.6427 95.6754 85.7421 95.5494 85.8794 95.4582C86.0167 95.3659 86.1889 95.3197 86.3961 95.3197C86.5855 95.3197 86.7506 95.3612 86.8915 95.444C87.0335 95.5257 87.1436 95.6435 87.2217 95.7974C87.301 95.9501 87.3401 96.1329 87.3389 96.346V98.0825H86.5825V96.481C86.5837 96.3129 86.5411 96.1821 86.4547 96.0886C86.3695 95.995 86.2499 95.9483 86.096 95.9483C85.993 95.9483 85.9019 95.9702 85.8226 96.014C85.7445 96.0578 85.6829 96.1217 85.6379 96.2057C85.5941 96.2886 85.5716 96.3886 85.5704 96.5058ZM89.1664 98.1358C88.8906 98.1358 88.6521 98.0772 88.4509 97.96C88.2508 97.8416 88.0963 97.6771 87.9874 97.4664C87.8785 97.2545 87.8241 97.0089 87.8241 96.7295C87.8241 96.4478 87.8785 96.2016 87.9874 95.9909C88.0963 95.779 88.2508 95.6145 88.4509 95.4973C88.6521 95.3789 88.8906 95.3197 89.1664 95.3197C89.4422 95.3197 89.6801 95.3789 89.8802 95.4973C90.0814 95.6145 90.2365 95.779 90.3454 95.9909C90.4543 96.2016 90.5087 96.4478 90.5087 96.7295C90.5087 97.0089 90.4543 97.2545 90.3454 97.4664C90.2365 97.6771 90.0814 97.8416 89.8802 97.96C89.6801 98.0772 89.4422 98.1358 89.1664 98.1358ZM89.17 97.5498C89.2954 97.5498 89.4002 97.5143 89.4842 97.4433C89.5683 97.3711 89.6316 97.2729 89.6742 97.1486C89.718 97.0243 89.7399 96.8828 89.7399 96.7242C89.7399 96.5656 89.718 96.4241 89.6742 96.2998C89.6316 96.1756 89.5683 96.0773 89.4842 96.0051C89.4002 95.9329 89.2954 95.8968 89.17 95.8968C89.0433 95.8968 88.9368 95.9329 88.8504 96.0051C88.7651 96.0773 88.7006 96.1756 88.6568 96.2998C88.6142 96.4241 88.5929 96.5656 88.5929 96.7242C88.5929 96.8828 88.6142 97.0243 88.6568 97.1486C88.7006 97.2729 88.7651 97.3711 88.8504 97.4433C88.9368 97.5143 89.0433 97.5498 89.17 97.5498ZM91.0006 99.1052V95.3552H91.7463V95.8133H91.7801C91.8132 95.74 91.8611 95.6654 91.9239 95.5896C91.9878 95.5127 92.0707 95.4488 92.1725 95.3979C92.2754 95.3458 92.4033 95.3197 92.556 95.3197C92.7548 95.3197 92.9383 95.3718 93.1064 95.476C93.2745 95.579 93.4088 95.7346 93.5095 95.943C93.6101 96.1501 93.6604 96.4099 93.6604 96.7224C93.6604 97.0266 93.6113 97.2835 93.513 97.493C93.4159 97.7014 93.2834 97.8594 93.1153 97.9671C92.9484 98.0736 92.7613 98.1269 92.5542 98.1269C92.4074 98.1269 92.2825 98.1026 92.1796 98.0541C92.0778 98.0056 91.9943 97.9446 91.9292 97.8712C91.8641 97.7967 91.8144 97.7215 91.7801 97.6457H91.757V99.1052H91.0006ZM91.741 96.7189C91.741 96.8811 91.7635 97.0225 91.8085 97.1432C91.8534 97.264 91.9185 97.3581 92.0038 97.4256C92.089 97.4918 92.1926 97.525 92.3145 97.525C92.4376 97.525 92.5418 97.4913 92.627 97.4238C92.7122 97.3551 92.7767 97.2604 92.8205 97.1397C92.8655 97.0178 92.888 96.8775 92.888 96.7189C92.888 96.5614 92.8661 96.423 92.8223 96.3034C92.7785 96.1838 92.714 96.0903 92.6288 96.0229C92.5435 95.9554 92.4388 95.9217 92.3145 95.9217C92.1914 95.9217 92.0872 95.9542 92.002 96.0193C91.918 96.0844 91.8534 96.1767 91.8085 96.2963C91.7635 96.4159 91.741 96.5567 91.741 96.7189ZM96.0783 96.5058V98.0825H95.3219V95.3552H96.0427V95.8364H96.0747C96.1351 95.6778 96.2363 95.5523 96.3783 95.46C96.5204 95.3665 96.6926 95.3197 96.895 95.3197C97.0844 95.3197 97.2495 95.3612 97.3904 95.444C97.5313 95.5269 97.6408 95.6453 97.7189 95.7991C97.797 95.9518 97.8361 96.1341 97.8361 96.346V98.0825H97.0797V96.481C97.0809 96.3141 97.0382 96.1838 96.9518 96.0903C96.8654 95.9956 96.7465 95.9483 96.5949 95.9483C96.4931 95.9483 96.4032 95.9702 96.3251 96.014C96.2481 96.0578 96.1878 96.1217 96.144 96.2057C96.1013 96.2886 96.0794 96.3886 96.0783 96.5058ZM99.6645 98.1358C99.3887 98.1358 99.1501 98.0772 98.9489 97.96C98.7489 97.8416 98.5944 97.6771 98.4855 97.4664C98.3766 97.2545 98.3221 97.0089 98.3221 96.7295C98.3221 96.4478 98.3766 96.2016 98.4855 95.9909C98.5944 95.779 98.7489 95.6145 98.9489 95.4973C99.1501 95.3789 99.3887 95.3197 99.6645 95.3197C99.9403 95.3197 100.178 95.3789 100.378 95.4973C100.579 95.6145 100.735 95.779 100.843 95.9909C100.952 96.2016 101.007 96.4478 101.007 96.7295C101.007 97.0089 100.952 97.2545 100.843 97.4664C100.735 97.6771 100.579 97.8416 100.378 97.96C100.178 98.0772 99.9403 98.1358 99.6645 98.1358ZM99.668 97.5498C99.7935 97.5498 99.8982 97.5143 99.9823 97.4433C100.066 97.3711 100.13 97.2729 100.172 97.1486C100.216 97.0243 100.238 96.8828 100.238 96.7242C100.238 96.5656 100.216 96.4241 100.172 96.2998C100.13 96.1756 100.066 96.0773 99.9823 96.0051C99.8982 95.9329 99.7935 95.8968 99.668 95.8968C99.5414 95.8968 99.4348 95.9329 99.3484 96.0051C99.2632 96.0773 99.1987 96.1756 99.1549 96.2998C99.1123 96.4241 99.091 96.5656 99.091 96.7242C99.091 96.8828 99.1123 97.0243 99.1549 97.1486C99.1987 97.2729 99.2632 97.3711 99.3484 97.4433C99.4348 97.5143 99.5414 97.5498 99.668 97.5498ZM101.968 98.0825L101.226 95.3552H101.991L102.414 97.1876H102.439L102.879 95.3552H103.63L104.078 97.177H104.101L104.516 95.3552H105.28L104.539 98.0825H103.739L103.27 96.3673H103.236L102.767 98.0825H101.968Z" fill="#FFA400"/>
<path d="M117.285 42.6318H70.1497C67.5577 42.6318 65.4565 44.731 65.4565 47.3205V77.9434C65.4565 80.5329 67.5577 82.6321 70.1497 82.6321H117.285C119.877 82.6321 121.978 80.5329 121.978 77.9434V47.3205C121.978 44.731 119.877 42.6318 117.285 42.6318Z" fill="#FFA400"/>
<path d="M102.053 57.2977H98.5577V54.6641C98.5769 53.3256 98.1168 52.0243 97.2603 50.9948C96.4038 49.9654 95.2073 49.2755 93.8865 49.0497C93.1028 48.9313 92.3027 48.9832 91.541 49.202C90.7792 49.4208 90.0736 49.8012 89.4725 50.3174C88.8714 50.8335 88.3889 51.4732 88.0579 52.1927C87.7269 52.9122 87.5553 53.6947 87.5547 54.4865V57.2967H84.0598C83.9274 57.2967 83.8004 57.3493 83.7068 57.4428C83.6131 57.5364 83.5605 57.6632 83.5605 57.7955V69.8614C83.5605 71.1668 84.0796 72.4187 85.0036 73.3418C85.9275 74.2649 87.1807 74.7835 88.4874 74.7835H97.6391C98.9457 74.7835 100.199 74.2649 101.123 73.3418C102.047 72.4187 102.566 71.1668 102.566 69.8614V57.8304C102.571 57.7615 102.561 57.6923 102.537 57.6272C102.514 57.5622 102.477 57.5027 102.43 57.4527C102.382 57.4026 102.324 57.3629 102.26 57.3363C102.197 57.3096 102.128 57.2965 102.059 57.2977H102.053ZM88.5533 54.4806C88.5542 53.8048 88.7074 53.138 89.0014 52.5294C89.2955 51.9209 89.7229 51.3863 90.2519 50.9653C90.7809 50.5442 91.3981 50.2476 92.0575 50.0973C92.717 49.947 93.4018 49.947 94.0613 50.0972C95.0681 50.3482 95.9607 50.9312 96.5949 51.7517C97.2291 52.5723 97.5678 53.5826 97.5562 54.6192V57.2977H88.5593L88.5533 54.4806ZM101.558 69.8614C101.558 70.9096 101.142 71.9149 100.4 72.6562C99.6577 73.3974 98.6514 73.8138 97.6021 73.8138H88.4834C87.4341 73.8138 86.4278 73.3974 85.6859 72.6562C84.944 71.9149 84.5271 70.9096 84.5271 69.8614V58.3272H87.5228V61.9066C87.1897 62.0243 86.9089 62.2558 86.7301 62.5603C86.5513 62.8647 86.4861 63.2225 86.5458 63.5704C86.6056 63.9183 86.7865 64.234 87.0566 64.4615C87.3268 64.689 87.6687 64.8138 88.0221 64.8138C88.3754 64.8138 88.7173 64.689 88.9875 64.4615C89.2576 64.234 89.4386 63.9183 89.4983 63.5704C89.5581 63.2225 89.4928 62.8647 89.314 62.5603C89.1352 62.2558 88.8545 62.0243 88.5213 61.9066V58.3272H97.5212V61.9066C97.1881 62.0243 96.9074 62.2558 96.7286 62.5603C96.5498 62.8647 96.4845 63.2225 96.5443 63.5704C96.604 63.9183 96.7849 64.234 97.0551 64.4615C97.3252 64.689 97.6672 64.8138 98.0205 64.8138C98.3738 64.8138 98.7158 64.689 98.9859 64.4615C99.2561 64.234 99.437 63.9183 99.4968 63.5704C99.5565 63.2225 99.4912 62.8647 99.3124 62.5603C99.1337 62.2558 98.8529 62.0243 98.5198 61.9066V58.3272H101.521V69.8923L101.558 69.8614Z" fill="#262729"/>
<path d="M119.608 50.0184C122.847 50.0184 125.473 47.3954 125.473 44.1596C125.473 40.9239 122.847 38.3008 119.608 38.3008C116.369 38.3008 113.744 40.9239 113.744 44.1596C113.744 47.3954 116.369 50.0184 119.608 50.0184Z" fill="#262729"/>
<path d="M117.203 44.2124L119.399 45.8085L122.006 42.5005" stroke="white" stroke-width="0.99" stroke-linecap="round" stroke-linejoin="round"/>
<path d="M64.8767 29.5925C66.0701 29.5925 67.0375 28.6259 67.0375 27.4337C67.0375 26.2414 66.0701 25.2749 64.8767 25.2749C63.6833 25.2749 62.7158 26.2414 62.7158 27.4337C62.7158 28.6259 63.6833 29.5925 64.8767 29.5925Z" fill="#D9D9D9"/>
<path d="M73.2702 29.5925C74.4636 29.5925 75.4311 28.6259 75.4311 27.4337C75.4311 26.2414 74.4636 25.2749 73.2702 25.2749C72.0768 25.2749 71.1094 26.2414 71.1094 27.4337C71.1094 28.6259 72.0768 29.5925 73.2702 29.5925Z" fill="#262729"/>
<path d="M81.6643 29.5925C82.8577 29.5925 83.8251 28.6259 83.8251 27.4337C83.8251 26.2414 82.8577 25.2749 81.6643 25.2749C80.4709 25.2749 79.5034 26.2414 79.5034 27.4337C79.5034 28.6259 80.4709 29.5925 81.6643 29.5925Z" fill="#FFA400"/>
<path d="M36.3883 41.3954C44.0589 41.3954 50.2771 35.1832 50.2771 27.52C50.2771 19.8568 44.0589 13.6445 36.3883 13.6445C28.7177 13.6445 22.4995 19.8568 22.4995 27.52C22.4995 35.1832 28.7177 41.3954 36.3883 41.3954Z" fill="#FF5050"/>
<path d="M41.1119 23.9456C40.8416 23.6814 40.5218 23.473 40.1708 23.3323C39.8198 23.1916 39.4446 23.1214 39.0664 23.1257C38.6882 23.1299 38.3146 23.2086 37.9669 23.3571C37.6192 23.5057 37.3042 23.7213 37.0399 23.9915L36.3059 24.7377L35.581 23.9915C35.034 23.4697 34.3035 23.1838 33.5473 23.1956C32.7911 23.2074 32.0699 23.5158 31.5395 24.0544C31.009 24.593 30.712 25.3184 30.7124 26.074C30.7129 26.8296 31.0108 27.5546 31.5419 28.0926L34.3378 30.8519C34.6078 31.1165 34.9272 31.3253 35.278 31.4665C35.6288 31.6077 36.004 31.6785 36.3821 31.6748C36.7603 31.6711 37.134 31.593 37.4819 31.4449C37.8299 31.2969 38.1452 31.0818 38.4099 30.812L41.1639 28.0018C41.6949 27.4557 41.9875 26.7215 41.9776 25.9603C41.9677 25.199 41.656 24.4727 41.111 23.9406L41.1119 23.9456Z" fill="white"/>
<path d="M246.053 70.2505H232.816C231.969 70.2505 231.156 69.9142 230.557 69.3155C229.958 68.7168 229.621 67.9049 229.621 67.0582C229.625 66.2138 229.963 65.4052 230.562 64.8093C231.16 64.2134 231.971 63.8789 232.816 63.8789H246.052C246.472 63.8789 246.888 63.9617 247.277 64.1226C247.665 64.2834 248.017 64.5192 248.314 64.8164C248.611 65.1135 248.846 65.4663 249.006 65.8544C249.166 66.2425 249.248 66.6584 249.248 67.0782C249.242 67.9214 248.903 68.7282 248.305 69.3226C247.706 69.9169 246.896 70.2505 246.052 70.2505H246.053Z" fill="#262729"/>
<path d="M235.929 67.8889C236.38 67.8875 236.745 67.5211 236.743 67.0704C236.742 66.6197 236.375 66.2555 235.924 66.2568C235.473 66.2582 235.109 66.6246 235.11 67.0753C235.111 67.526 235.478 67.8902 235.929 67.8889Z" fill="white"/>
<path d="M239.433 67.885C239.884 67.8836 240.249 67.5172 240.247 67.0665C240.246 66.6158 239.879 66.2516 239.428 66.2529C238.977 66.2543 238.612 66.6207 238.614 67.0714C238.615 67.5221 238.982 67.8863 239.433 67.885Z" fill="white"/>
<path d="M242.945 67.8728C243.396 67.8714 243.76 67.505 243.759 67.0543C243.758 66.6036 243.391 66.2394 242.94 66.2407C242.489 66.2421 242.124 66.6085 242.125 67.0592C242.127 67.5099 242.494 67.8741 242.945 67.8728Z" fill="white"/>
<path d="M131.084 177.032C133.817 177.032 136.032 174.819 136.032 172.089C136.032 169.359 133.817 167.146 131.084 167.146C128.351 167.146 126.136 169.359 126.136 172.089C126.136 174.819 128.351 177.032 131.084 177.032Z" fill="#FFA400"/>
<path d="M101.851 177.032C104.583 177.032 106.798 174.819 106.798 172.089C106.798 169.359 104.583 167.146 101.851 167.146C99.118 167.146 96.9028 169.359 96.9028 172.089C96.9028 174.819 99.118 177.032 101.851 177.032Z" fill="#FFA400"/>
<path d="M175.748 91.8262L164.416 94.1605C163.259 94.3713 162.19 94.9137 161.337 95.7214C160.484 96.5292 159.885 97.5674 159.613 98.7095L149.562 140.69H93.1942C91.5015 140.684 89.8555 140.135 88.4984 139.124C87.1413 138.113 86.1447 136.694 85.6551 135.076L80.0283 110.535L158.266 104.374" stroke="black" stroke-width="0.97" stroke-miterlimit="10"/>
<path d="M83.5952 126.228L153.974 122.121L145.514 156.837C144.825 159.773 143.162 162.389 140.796 164.262C138.43 166.134 135.5 167.152 132.482 167.151H91.4278" stroke="black" stroke-width="0.97" stroke-miterlimit="10"/>
<path d="M141.396 105.708L134.609 140.693" stroke="black" stroke-width="0.97" stroke-miterlimit="10"/>
<path d="M96.897 109.21L100.672 140.692" stroke="black" stroke-width="0.97" stroke-miterlimit="10"/>
<path d="M118.79 107.485V140.693" stroke="black" stroke-width="0.97" stroke-miterlimit="10"/>
<path d="M234.82 136.012L239.043 128.969L255.152 134.624L251.449 140.902L234.82 136.012Z" fill="#A36945"/>
<path d="M252.339 137.903L252.299 137.962C252.073 138.296 251.745 138.547 251.363 138.679C250.982 138.811 250.568 138.816 250.184 138.693C249.598 138.43 248.946 138.35 248.313 138.462C247.963 138.521 247.648 138.708 247.43 138.987C247.212 139.266 247.106 139.617 247.134 139.97C247.318 142.464 247.793 148.526 246.824 153.681C246.707 154.268 246.736 154.876 246.908 155.45C247.081 156.023 247.391 156.546 247.813 156.973L248.274 157.441L260.885 135.893L253.967 133.598C253.679 133.348 253.306 133.219 252.925 133.238C252.545 133.256 252.186 133.421 251.925 133.698C251.681 133.954 251.538 134.289 251.521 134.641C251.504 134.994 251.614 135.341 251.832 135.619L252.273 136.166C252.462 136.413 252.57 136.713 252.582 137.024C252.594 137.336 252.509 137.643 252.339 137.904V137.903Z" fill="#262729"/>
<path d="M260.851 135.868C260.97 135.826 261.097 135.814 261.221 135.834C261.345 135.853 261.462 135.903 261.562 135.979C261.78 136.143 261.929 136.383 261.981 136.65C262.032 136.918 261.981 137.195 261.839 137.428L250.402 157.05C250.295 157.23 250.151 157.384 249.978 157.502C249.805 157.62 249.609 157.699 249.403 157.733C249.196 157.767 248.985 157.755 248.783 157.699C248.582 157.642 248.395 157.542 248.237 157.406L260.851 135.868Z" fill="#D8DCFD"/>
<path d="M247.377 143.406C247.377 143.406 247.765 142.818 249.353 143.096" stroke="white" stroke-width="1.17" stroke-linecap="round" stroke-linejoin="round"/>
<path d="M247.331 144.998C247.331 144.998 247.719 144.41 249.307 144.688" stroke="white" stroke-width="1.17" stroke-linecap="round" stroke-linejoin="round"/>
<path d="M247.325 146.813C247.325 146.813 247.714 146.225 249.301 146.503" stroke="white" stroke-width="1.17" stroke-linecap="round" stroke-linejoin="round"/>
<path d="M258.097 134.671C258.097 134.671 253.064 140.305 253.992 147.586L260.85 135.87C260.019 135.296 259.084 134.889 258.097 134.673V134.671Z" fill="#DD5213"/>
<path d="M193.846 100.739L202.141 124.763C202.549 125.994 203.215 127.125 204.092 128.08C204.97 129.035 206.041 129.794 207.233 130.306H207.286L241.586 141.549L247.777 127.882L215.414 115.376C215.414 115.376 207.027 84.4399 203.95 81.3584L193.846 100.739Z" fill="#262729"/>
<path d="M189.695 152.942L197.911 153.001L201.213 169.74H193.923L189.695 152.942Z" fill="#A36945"/>
<path d="M196.942 168.957H196.867C196.466 168.931 196.084 168.775 195.778 168.514C195.472 168.253 195.259 167.9 195.17 167.509C195.099 166.869 194.838 166.266 194.419 165.778C194.191 165.507 193.87 165.331 193.519 165.285C193.168 165.239 192.812 165.326 192.522 165.528C190.466 166.951 185.492 170.439 180.539 172.212C179.977 172.411 179.472 172.745 179.068 173.183C178.664 173.621 178.372 174.151 178.219 174.727L178.055 175.385L203.031 175.307L201.503 168.185C201.572 167.811 201.494 167.426 201.285 167.108C201.077 166.79 200.754 166.565 200.383 166.48C200.038 166.4 199.676 166.447 199.363 166.612C199.05 166.777 198.806 167.049 198.677 167.378L198.433 168.036C198.311 168.326 198.102 168.57 197.835 168.735C197.568 168.9 197.256 168.978 196.942 168.957Z" fill="#262729"/>
<path d="M203.031 175.275C203.125 175.355 203.198 175.457 203.244 175.572C203.29 175.687 203.307 175.811 203.294 175.934C203.263 176.204 203.133 176.454 202.928 176.634C202.724 176.814 202.459 176.911 202.187 176.907L179.457 177.031C179.248 177.03 179.042 176.984 178.854 176.896C178.665 176.807 178.498 176.678 178.364 176.518C178.23 176.358 178.133 176.171 178.08 175.969C178.026 175.768 178.017 175.557 178.054 175.352L203.031 175.275Z" fill="#D8DCFD"/>
<path d="M189.695 167.501C189.695 167.501 190.4 167.534 190.96 169.042" stroke="white" stroke-width="1.17" stroke-linecap="round" stroke-linejoin="round"/>
<path d="M188.292 168.271C188.292 168.271 188.997 168.304 189.557 169.812" stroke="white" stroke-width="1.17" stroke-linecap="round" stroke-linejoin="round"/>
<path d="M186.705 169.193C186.705 169.193 187.41 169.226 187.97 170.734" stroke="white" stroke-width="1.17" stroke-linecap="round" stroke-linejoin="round"/>
<path d="M202.661 172.3C202.661 172.3 195.249 170.825 189.438 175.32L203.023 175.275C203.097 174.268 202.974 173.258 202.661 172.299V172.3Z" fill="#DD5213"/>
<path d="M191.165 88.6292L180.13 119.355C179.52 121.055 179.339 122.88 179.603 124.667L188.431 161.889L203.261 159.98L196.264 123.514C196.264 123.514 211.416 97.6184 210.817 87.2046L191.165 88.6292Z" fill="#444547"/>
<path d="M181.559 47.7627L185.505 55.9579L191.534 51.0806L185.642 41.7402L181.559 47.7627Z" fill="#A36945"/>
<path d="M183.154 51.0767L184.689 46.2783L181.672 48.0291L183.154 51.0767Z" fill="black"/>
<path d="M178.105 30.8497C178.105 30.8497 174.251 31.7785 174.39 36.6946C174.39 36.6946 174.39 38.571 174.654 43.6976C174.779 46.4101 176.716 49.7829 180.116 49.345C181.958 48.9589 183.648 48.0435 184.977 46.7113L187.085 44.4408C191.937 38.177 186.426 29.0979 178.673 30.71L178.105 30.8497Z" fill="#A36945"/>
<path d="M174.91 40.4136L173.502 43.2178C173.459 43.2717 173.432 43.3364 173.424 43.4049C173.415 43.4733 173.426 43.5427 173.455 43.6054C173.483 43.6682 173.529 43.7217 173.586 43.7602C173.643 43.7987 173.71 43.8205 173.779 43.8233L175.564 43.9879L174.91 40.4136Z" fill="#A36945"/>
<path d="M176.209 38.9131C176.209 38.9131 177.941 39.3211 178.013 40.3476C178.106 41.6634 176.515 41.4011 176.515 41.4011C176.515 41.4011 174.996 40.184 176.209 38.9131Z" fill="white"/>
<path d="M176.457 38.5713C176.457 38.5713 177.518 40.4138 176.257 41.6977L175.525 41.6518L175.433 39.5918L176.457 38.5713Z" fill="black"/>
<path d="M175.912 38.5967C176.156 38.6415 176.395 38.712 176.623 38.8072C176.856 38.8978 177.077 39.015 177.282 39.1563C177.687 39.435 177.975 39.8515 178.093 40.3275C178.096 40.3375 178.096 40.3479 178.095 40.3581C178.093 40.3683 178.09 40.378 178.084 40.3868C178.079 40.3955 178.071 40.4029 178.063 40.4087C178.054 40.4145 178.045 40.4184 178.034 40.4203C178.017 40.4233 177.999 40.4205 177.983 40.4121C177.968 40.4038 177.956 40.3905 177.948 40.3744C177.795 39.9667 177.497 39.6294 177.112 39.4267C176.921 39.3254 176.721 39.2458 176.513 39.1892C176.297 39.1307 176.076 39.0956 175.854 39.0845C175.789 39.0845 175.727 39.0589 175.681 39.0132C175.636 38.9676 175.61 38.9056 175.61 38.8411C175.61 38.7765 175.636 38.7146 175.681 38.669C175.727 38.6233 175.789 38.5977 175.854 38.5977L175.912 38.5967Z" fill="black"/>
<path d="M175.254 45.0146H176.94C176.94 45.0146 175.827 46.6706 175.254 45.0146Z" fill="white"/>
<path d="M179.596 37.722C179.511 37.7601 179.419 37.7798 179.326 37.7798C179.232 37.7798 179.14 37.7601 179.055 37.722C178.298 37.3877 177.516 37.1106 176.717 36.893C174.833 36.3533 175.718 35.1881 176.717 35.3268C177.87 35.5696 178.914 36.1764 179.695 37.0576C179.962 37.4317 179.8 37.6302 179.596 37.722Z" fill="black"/>
<path d="M185.485 41.1438C185.485 41.1438 184.352 44.395 188.265 46.048C188.265 46.048 196.981 34.1078 184.171 30.0796L183.459 31.3096L185.485 41.1438Z" fill="#DD5213"/>
<path d="M189.353 31.9559C189.353 32.5215 188.754 36.7872 188.754 36.7872L184.017 40.8414C184.017 40.8414 181.321 37.0236 182.303 33.2058C182.303 33.2258 189.418 29.836 189.353 31.9559Z" fill="#DD5213"/>
<path d="M185.998 42.8877C187.279 42.6909 188.157 41.4944 187.96 40.2153C187.763 38.9361 186.565 38.0587 185.285 38.2555C184.005 38.4523 183.126 39.6488 183.323 40.9279C183.52 42.207 184.718 43.0845 185.998 42.8877Z" fill="#A36945"/>
<path d="M183.351 28.4536C183.351 28.4536 190.875 28.0974 192.574 31.8045C195.112 37.3072 191.827 41.2107 188.265 46.048L188.753 36.7864L183.351 28.4536Z" fill="#DD5213"/>
<path d="M183.022 34.3702C181.613 33.3141 179.85 32.8427 178.102 33.0544C175.546 33.5752 172.693 33.8445 172.449 30.8597C172.14 27.0479 184.15 22.494 191.866 30.8009L185.752 34.0071L183.022 34.3702Z" fill="#DD5213"/>
<path d="M146.758 54.8029C150.007 56.5796 152.73 56.4349 154.006 53.9409C154.605 52.7434 154.704 51.3572 154.28 50.0872C153.856 48.8171 152.945 47.7672 151.746 47.1683C149.25 45.9243 147.134 46.47 145.487 48.7415C144.183 50.5272 143.992 53.2865 146.758 54.8029Z" fill="#A36945"/>
<path d="M147.252 47.221C147.252 47.221 147.652 45.5689 150.548 45.9381C153.184 46.2732 155.898 49.2301 153.987 53.9417L147.252 47.221Z" fill="#A36945"/>
<path d="M147.622 48.5072L142.576 45.1154C142.361 44.9893 142.203 44.7858 142.135 44.5469C142.066 44.308 142.092 44.0519 142.207 43.8315C142.306 43.6451 142.472 43.5033 142.671 43.435C142.871 43.3666 143.089 43.3767 143.282 43.4634L149.273 46.097L147.622 48.5072Z" fill="#A36945"/>
<path d="M173.035 58.5676L152.97 51.7021L150.388 55.3224L169.324 66.5123C172.032 68.0855 174.839 66.1702 175.754 63.1824C176.439 60.864 175.253 59.5831 173.035 58.5676Z" fill="#A36945"/>
<path d="M190.328 54.4078L169.719 59.1055C167.032 60.2307 165.476 60.534 166.424 63.2814C166.894 64.6697 167.895 65.8155 169.209 66.4679C170.523 67.1204 172.042 67.2265 173.433 66.763L193.456 63.7482C196.223 62.8265 198.115 60.8463 197.765 57.9493C197.265 53.914 194.095 52.8336 190.328 54.4078Z" fill="#A36945"/>
<path d="M178.818 57.033L182.55 68.1831L194.884 66.3934L194.005 53.334L178.818 57.033Z" fill="#E1960E"/>
<path d="M185.135 55.1579L189.023 94.2164C205.211 97.0735 212.082 89.6085 212.082 89.6085C212.082 89.6085 207.609 76.2598 204.275 66.7947C200.78 56.8438 195.588 53.1707 191.48 51.0967L185.135 55.1579Z" fill="#FFA400"/>
<path d="M191.533 51.0767C191.533 51.0767 188.503 57.3694 185.518 58.4887L185.145 55.066L189.21 52.1969L191.533 51.0767Z" fill="#91542E"/>
<path d="M196.16 78.4385L176.314 85.9004L176.295 90.4953L199.533 86.1638L196.16 78.4385Z" fill="#A36945"/>
<path d="M168.783 90.3919C169.159 89.5133 169.731 88.7322 170.456 88.1082C171.18 87.4843 172.038 87.0339 172.963 86.7916L177.257 85.5605L179.233 87.5946L177.809 88.9503C178.208 90.8458 177.638 93.9662 175.391 95.2032C172.776 96.6318 167.773 93.236 168.783 90.3919Z" fill="#A36945"/>
<path d="M189.926 65.8539L194.386 83.3626C194.881 85.2979 197.556 86.5219 199.526 86.1468C200.512 85.9587 201.383 85.3872 201.948 84.5578C202.513 83.7284 202.725 82.709 202.537 81.7235L199.178 64.0972L189.926 65.8539Z" fill="#A36945"/>
<path d="M193.246 53.6633C192.643 53.6076 192.036 53.6908 191.47 53.9065C190.905 54.1221 190.397 54.4645 189.984 54.9073C189.153 55.7677 188.54 56.8143 188.197 57.9597C187.853 59.1051 187.788 60.316 188.008 61.4913C188.611 65.3314 189.566 69.1079 190.861 72.7731L201.218 71.1081C201.218 71.1081 200.131 54.4733 193.246 53.6633Z" fill="#E1960E"/>
<path d="M191.686 72.556C190.774 69.2661 190.048 65.9276 189.511 62.5562" stroke="black" stroke-width="0.41" stroke-linecap="round" stroke-linejoin="round"/>
<path d="M0 177.02H259.658" stroke="#070C09" stroke-width="0.74" stroke-miterlimit="10"/>
</svg>
